<?xml version="1.0" encoding="UTF-8" standalone="no"?>
<!DOCTYPE svg PUBLIC "-//W3C//DTD SVG 1.1//EN"
 "http://www.w3.org/Graphics/SVG/1.1/DTD/svg11.dtd">
<!-- Generated by graphviz version 12.2.0 (20241103.1931)
 -->
<!-- Title: unknown Pages: 1 -->
<svg width="1090pt" height="764pt"
 viewBox="0.00 0.00 1090.13 764.00" xmlns="http://www.w3.org/2000/svg" xmlns:xlink="http://www.w3.org/1999/xlink">
<g id="graph0" class="graph" transform="scale(1 1) rotate(0) translate(4 760)">
<title>unknown</title>
<polygon fill="white" stroke="none" points="-4,4 -4,-760 1086.13,-760 1086.13,4 -4,4"/>
<!-- HISTORY -->
<g id="node1" class="node">
<title>HISTORY</title>
<ellipse fill="none" stroke="black" cx="50.84" cy="-162" rx="50.84" ry="18"/>
<text text-anchor="middle" x="50.84" y="-156.95" font-family="Times,serif" font-size="14.00">HISTORY</text>
</g>
<!-- CVP -->
<g id="node2" class="node">
<title>CVP</title>
<ellipse fill="none" stroke="black" cx="152.84" cy="-90" rx="28.83" ry="18"/>
<text text-anchor="middle" x="152.84" y="-84.95" font-family="Times,serif" font-size="14.00">CVP</text>
</g>
<!-- PCWP -->
<g id="node3" class="node">
<title>PCWP</title>
<ellipse fill="none" stroke="black" cx="235.84" cy="-90" rx="36.51" ry="18"/>
<text text-anchor="middle" x="235.84" y="-84.95" font-family="Times,serif" font-size="14.00">PCWP</text>
</g>
<!-- HYPOVOLEMIA -->
<g id="node4" class="node">
<title>HYPOVOLEMIA</title>
<ellipse fill="none" stroke="black" cx="364.84" cy="-234" rx="78.99" ry="18"/>
<text text-anchor="middle" x="364.84" y="-228.95" font-family="Times,serif" font-size="14.00">HYPOVOLEMIA</text>
</g>
<!-- LVEDVOLUME -->
<g id="node5" class="node">
<title>LVEDVOLUME</title>
<ellipse fill="none" stroke="black" cx="194.84" cy="-162" rx="75.41" ry="18"/>
<text text-anchor="middle" x="194.84" y="-156.95" font-family="Times,serif" font-size="14.00">LVEDVOLUME</text>
</g>
<!-- HYPOVOLEMIA&#45;&gt;LVEDVOLUME -->
<g id="edge1" class="edge">
<title>HYPOVOLEMIA&#45;&gt;LVEDVOLUME</title>
<path fill="none" stroke="black" d="M327.95,-217.81C302.78,-207.45 269.21,-193.62 242.08,-182.45"/>
<polygon fill="black" stroke="black" points="243.63,-179.31 233.05,-178.74 240.97,-185.78 243.63,-179.31"/>
</g>
<!-- STROKEVOLUME -->
<g id="node6" class="node">
<title>STROKEVOLUME</title>
<ellipse fill="none" stroke="black" cx="374.84" cy="-162" rx="86.67" ry="18"/>
<text text-anchor="middle" x="374.84" y="-156.95" font-family="Times,serif" font-size="14.00">STROKEVOLUME</text>
</g>
<!-- HYPOVOLEMIA&#45;&gt;STROKEVOLUME -->
<g id="edge2" class="edge">
<title>HYPOVOLEMIA&#45;&gt;STROKEVOLUME</title>
<path fill="none" stroke="black" d="M367.31,-215.7C368.37,-208.32 369.62,-199.52 370.8,-191.25"/>
<polygon fill="black" stroke="black" points="374.23,-192 372.18,-181.6 367.3,-191.01 374.23,-192"/>
</g>
<!-- LVEDVOLUME&#45;&gt;CVP -->
<g id="edge3" class="edge">
<title>LVEDVOLUME&#45;&gt;CVP</title>
<path fill="none" stroke="black" d="M184.46,-143.7C179.59,-135.58 173.68,-125.74 168.3,-116.76"/>
<polygon fill="black" stroke="black" points="171.45,-115.22 163.31,-108.44 165.45,-118.82 171.45,-115.22"/>
</g>
<!-- LVEDVOLUME&#45;&gt;PCWP -->
<g id="edge4" class="edge">
<title>LVEDVOLUME&#45;&gt;PCWP</title>
<path fill="none" stroke="black" d="M204.97,-143.7C209.61,-135.78 215.21,-126.23 220.35,-117.44"/>
<polygon fill="black" stroke="black" points="223.3,-119.33 225.34,-108.93 217.26,-115.79 223.3,-119.33"/>
</g>
<!-- CO -->
<g id="node8" class="node">
<title>CO</title>
<ellipse fill="none" stroke="black" cx="434.84" cy="-90" rx="27" ry="18"/>
<text text-anchor="middle" x="434.84" y="-84.95" font-family="Times,serif" font-size="14.00">CO</text>
</g>
<!-- STROKEVOLUME&#45;&gt;CO -->
<g id="edge8" class="edge">
<title>STROKEVOLUME&#45;&gt;CO</title>
<path fill="none" stroke="black" d="M389.36,-144.05C397.01,-135.13 406.51,-124.06 414.84,-114.33"/>
<polygon fill="black" stroke="black" points="417.24,-116.91 421.09,-107.04 411.93,-112.35 417.24,-116.91"/>
</g>
<!-- LVFAILURE -->
<g id="node7" class="node">
<title>LVFAILURE</title>
<ellipse fill="none" stroke="black" cx="194.84" cy="-234" rx="62.1" ry="18"/>
<text text-anchor="middle" x="194.84" y="-228.95" font-family="Times,serif" font-size="14.00">LVFAILURE</text>
</g>
<!-- LVFAILURE&#45;&gt;HISTORY -->
<g id="edge5" class="edge">
<title>LVFAILURE&#45;&gt;HISTORY</title>
<path fill="none" stroke="black" d="M163.95,-217.98C142.31,-207.46 113.21,-193.32 89.95,-182.01"/>
<polygon fill="black" stroke="black" points="91.6,-178.92 81.08,-177.7 88.54,-185.22 91.6,-178.92"/>
</g>
<!-- LVFAILURE&#45;&gt;LVEDVOLUME -->
<g id="edge6" class="edge">
<title>LVFAILURE&#45;&gt;LVEDVOLUME</title>
<path fill="none" stroke="black" d="M194.84,-215.7C194.84,-208.41 194.84,-199.73 194.84,-191.54"/>
<polygon fill="black" stroke="black" points="198.34,-191.62 194.84,-181.62 191.34,-191.62 198.34,-191.62"/>
</g>
<!-- LVFAILURE&#45;&gt;STROKEVOLUME -->
<g id="edge7" class="edge">
<title>LVFAILURE&#45;&gt;STROKEVOLUME</title>
<path fill="none" stroke="black" d="M230.83,-219C257.7,-208.56 294.75,-194.15 324.54,-182.56"/>
<polygon fill="black" stroke="black" points="325.69,-185.87 333.74,-178.98 323.16,-179.34 325.69,-185.87"/>
</g>
<!-- BP -->
<g id="node18" class="node">
<title>BP</title>
<ellipse fill="none" stroke="black" cx="461.84" cy="-18" rx="27" ry="18"/>
<text text-anchor="middle" x="461.84" y="-12.95" font-family="Times,serif" font-size="14.00">BP</text>
</g>
<!-- CO&#45;&gt;BP -->
<g id="edge46" class="edge">
<title>CO&#45;&gt;BP</title>
<path fill="none" stroke="black" d="M441.38,-72.05C444.36,-64.32 447.97,-54.96 451.32,-46.27"/>
<polygon fill="black" stroke="black" points="454.49,-47.79 454.82,-37.2 447.95,-45.27 454.49,-47.79"/>
</g>
<!-- ERRLOWOUTPUT -->
<g id="node9" class="node">
<title>ERRLOWOUTPUT</title>
<ellipse fill="none" stroke="black" cx="604.84" cy="-162" rx="86.67" ry="18"/>
<text text-anchor="middle" x="604.84" y="-156.95" font-family="Times,serif" font-size="14.00">ERRLOWOUTPUT</text>
</g>
<!-- HRBP -->
<g id="node10" class="node">
<title>HRBP</title>
<ellipse fill="none" stroke="black" cx="623.84" cy="-90" rx="34.97" ry="18"/>
<text text-anchor="middle" x="623.84" y="-84.95" font-family="Times,serif" font-size="14.00">HRBP</text>
</g>
<!-- ERRLOWOUTPUT&#45;&gt;HRBP -->
<g id="edge9" class="edge">
<title>ERRLOWOUTPUT&#45;&gt;HRBP</title>
<path fill="none" stroke="black" d="M609.54,-143.7C611.56,-136.24 613.98,-127.32 616.25,-118.97"/>
<polygon fill="black" stroke="black" points="619.56,-120.13 618.8,-109.57 612.8,-118.3 619.56,-120.13"/>
</g>
<!-- HREKG -->
<g id="node11" class="node">
<title>HREKG</title>
<ellipse fill="none" stroke="black" cx="738.84" cy="-90" rx="42.65" ry="18"/>
<text text-anchor="middle" x="738.84" y="-84.95" font-family="Times,serif" font-size="14.00">HREKG</text>
</g>
<!-- ERRCAUTER -->
<g id="node12" class="node">
<title>ERRCAUTER</title>
<ellipse fill="none" stroke="black" cx="847.84" cy="-162" rx="65.68" ry="18"/>
<text text-anchor="middle" x="847.84" y="-156.95" font-family="Times,serif" font-size="14.00">ERRCAUTER</text>
</g>
<!-- ERRCAUTER&#45;&gt;HREKG -->
<g id="edge10" class="edge">
<title>ERRCAUTER&#45;&gt;HREKG</title>
<path fill="none" stroke="black" d="M822.83,-144.94C807.39,-135.02 787.42,-122.2 770.82,-111.54"/>
<polygon fill="black" stroke="black" points="773.08,-108.83 762.78,-106.37 769.3,-114.72 773.08,-108.83"/>
</g>
<!-- HRSAT -->
<g id="node13" class="node">
<title>HRSAT</title>
<ellipse fill="none" stroke="black" cx="844.84" cy="-90" rx="40.09" ry="18"/>
<text text-anchor="middle" x="844.84" y="-84.95" font-family="Times,serif" font-size="14.00">HRSAT</text>
</g>
<!-- ERRCAUTER&#45;&gt;HRSAT -->
<g id="edge11" class="edge">
<title>ERRCAUTER&#45;&gt;HRSAT</title>
<path fill="none" stroke="black" d="M847.1,-143.7C846.79,-136.41 846.41,-127.73 846.06,-119.54"/>
<polygon fill="black" stroke="black" points="849.56,-119.46 845.64,-109.62 842.57,-119.76 849.56,-119.46"/>
</g>
<!-- INSUFFANESTH -->
<g id="node14" class="node">
<title>INSUFFANESTH</title>
<ellipse fill="none" stroke="black" cx="742.84" cy="-306" rx="78.99" ry="18"/>
<text text-anchor="middle" x="742.84" y="-300.95" font-family="Times,serif" font-size="14.00">INSUFFANESTH</text>
</g>
<!-- CATECHOL -->
<g id="node15" class="node">
<title>CATECHOL</title>
<ellipse fill="none" stroke="black" cx="736.84" cy="-234" rx="59.03" ry="18"/>
<text text-anchor="middle" x="736.84" y="-228.95" font-family="Times,serif" font-size="14.00">CATECHOL</text>
</g>
<!-- INSUFFANESTH&#45;&gt;CATECHOL -->
<g id="edge12" class="edge">
<title>INSUFFANESTH&#45;&gt;CATECHOL</title>
<path fill="none" stroke="black" d="M741.36,-287.7C740.73,-280.41 739.99,-271.73 739.29,-263.54"/>
<polygon fill="black" stroke="black" points="742.78,-263.28 738.43,-253.61 735.8,-263.87 742.78,-263.28"/>
</g>
<!-- HR -->
<g id="node37" class="node">
<title>HR</title>
<ellipse fill="none" stroke="black" cx="736.84" cy="-162" rx="27" ry="18"/>
<text text-anchor="middle" x="736.84" y="-156.95" font-family="Times,serif" font-size="14.00">HR</text>
</g>
<!-- CATECHOL&#45;&gt;HR -->
<g id="edge41" class="edge">
<title>CATECHOL&#45;&gt;HR</title>
<path fill="none" stroke="black" d="M736.84,-215.7C736.84,-208.41 736.84,-199.73 736.84,-191.54"/>
<polygon fill="black" stroke="black" points="740.34,-191.62 736.84,-181.62 733.34,-191.62 740.34,-191.62"/>
</g>
<!-- ANAPHYLAXIS -->
<g id="node16" class="node">
<title>ANAPHYLAXIS</title>
<ellipse fill="none" stroke="black" cx="485.84" cy="-378" rx="76.43" ry="18"/>
<text text-anchor="middle" x="485.84" y="-372.95" font-family="Times,serif" font-size="14.00">ANAPHYLAXIS</text>
</g>
<!-- TPR -->
<g id="node17" class="node">
<title>TPR</title>
<ellipse fill="none" stroke="black" cx="489.84" cy="-306" rx="27.81" ry="18"/>
<text text-anchor="middle" x="489.84" y="-300.95" font-family="Times,serif" font-size="14.00">TPR</text>
</g>
<!-- ANAPHYLAXIS&#45;&gt;TPR -->
<g id="edge13" class="edge">
<title>ANAPHYLAXIS&#45;&gt;TPR</title>
<path fill="none" stroke="black" d="M486.83,-359.7C487.24,-352.41 487.74,-343.73 488.21,-335.54"/>
<polygon fill="black" stroke="black" points="491.7,-335.8 488.78,-325.62 484.71,-335.4 491.7,-335.8"/>
</g>
<!-- TPR&#45;&gt;CATECHOL -->
<g id="edge14" class="edge">
<title>TPR&#45;&gt;CATECHOL</title>
<path fill="none" stroke="black" d="M514.88,-297.9C554.3,-286.73 631.7,-264.8 683.86,-250.01"/>
<polygon fill="black" stroke="black" points="684.78,-253.39 693.45,-247.3 682.88,-246.66 684.78,-253.39"/>
</g>
<!-- TPR&#45;&gt;BP -->
<g id="edge15" class="edge">
<title>TPR&#45;&gt;BP</title>
<path fill="none" stroke="black" d="M488.94,-287.7C486.83,-248.96 480.92,-152.34 470.84,-72 469.84,-64.01 468.49,-55.38 467.14,-47.45"/>
<polygon fill="black" stroke="black" points="470.59,-46.86 465.4,-37.62 463.69,-48.08 470.59,-46.86"/>
</g>
<!-- EXPCO2 -->
<g id="node19" class="node">
<title>EXPCO2</title>
<ellipse fill="none" stroke="black" cx="942.84" cy="-306" rx="45.72" ry="18"/>
<text text-anchor="middle" x="942.84" y="-300.95" font-family="Times,serif" font-size="14.00">EXPCO2</text>
</g>
<!-- KINKEDTUBE -->
<g id="node20" class="node">
<title>KINKEDTUBE</title>
<ellipse fill="none" stroke="black" cx="1011.84" cy="-594" rx="70.29" ry="18"/>
<text text-anchor="middle" x="1011.84" y="-588.95" font-family="Times,serif" font-size="14.00">KINKEDTUBE</text>
</g>
<!-- PRESS -->
<g id="node21" class="node">
<title>PRESS</title>
<ellipse fill="none" stroke="black" cx="823.84" cy="-522" rx="38.04" ry="18"/>
<text text-anchor="middle" x="823.84" y="-516.95" font-family="Times,serif" font-size="14.00">PRESS</text>
</g>
<!-- KINKEDTUBE&#45;&gt;PRESS -->
<g id="edge16" class="edge">
<title>KINKEDTUBE&#45;&gt;PRESS</title>
<path fill="none" stroke="black" d="M973.34,-578.67C941.3,-566.73 895.85,-549.81 863.49,-537.76"/>
<polygon fill="black" stroke="black" points="865.07,-534.62 854.48,-534.41 862.63,-541.18 865.07,-534.62"/>
</g>
<!-- VENTLUNG -->
<g id="node22" class="node">
<title>VENTLUNG</title>
<ellipse fill="none" stroke="black" cx="940.84" cy="-522" rx="61.08" ry="18"/>
<text text-anchor="middle" x="940.84" y="-516.95" font-family="Times,serif" font-size="14.00">VENTLUNG</text>
</g>
<!-- KINKEDTUBE&#45;&gt;VENTLUNG -->
<g id="edge17" class="edge">
<title>KINKEDTUBE&#45;&gt;VENTLUNG</title>
<path fill="none" stroke="black" d="M994.65,-576.05C985.89,-567.42 975.08,-556.76 965.45,-547.27"/>
<polygon fill="black" stroke="black" points="968.04,-544.9 958.46,-540.37 963.12,-549.88 968.04,-544.9"/>
</g>
<!-- VENTLUNG&#45;&gt;EXPCO2 -->
<g id="edge34" class="edge">
<title>VENTLUNG&#45;&gt;EXPCO2</title>
<path fill="none" stroke="black" d="M941,-503.85C941.34,-467.14 942.15,-380.66 942.57,-335.53"/>
<polygon fill="black" stroke="black" points="946.07,-335.78 942.66,-325.75 939.07,-335.71 946.07,-335.78"/>
</g>
<!-- MINVOL -->
<g id="node23" class="node">
<title>MINVOL</title>
<ellipse fill="none" stroke="black" cx="744.84" cy="-450" rx="48.28" ry="18"/>
<text text-anchor="middle" x="744.84" y="-444.95" font-family="Times,serif" font-size="14.00">MINVOL</text>
</g>
<!-- VENTLUNG&#45;&gt;MINVOL -->
<g id="edge35" class="edge">
<title>VENTLUNG&#45;&gt;MINVOL</title>
<path fill="none" stroke="black" d="M903.05,-507.5C870.63,-495.92 823.85,-479.22 789.57,-466.97"/>
<polygon fill="black" stroke="black" points="790.93,-463.74 780.34,-463.68 788.58,-470.34 790.93,-463.74"/>
</g>
<!-- VENTALV -->
<g id="node31" class="node">
<title>VENTALV</title>
<ellipse fill="none" stroke="black" cx="865.84" cy="-450" rx="54.42" ry="18"/>
<text text-anchor="middle" x="865.84" y="-444.95" font-family="Times,serif" font-size="14.00">VENTALV</text>
</g>
<!-- VENTLUNG&#45;&gt;VENTALV -->
<g id="edge36" class="edge">
<title>VENTLUNG&#45;&gt;VENTALV</title>
<path fill="none" stroke="black" d="M923.07,-504.41C913.73,-495.69 902.1,-484.85 891.78,-475.21"/>
<polygon fill="black" stroke="black" points="894.29,-472.77 884.59,-468.5 889.51,-477.88 894.29,-472.77"/>
</g>
<!-- FIO2 -->
<g id="node24" class="node">
<title>FIO2</title>
<ellipse fill="none" stroke="black" cx="647.84" cy="-450" rx="30.37" ry="18"/>
<text text-anchor="middle" x="647.84" y="-444.95" font-family="Times,serif" font-size="14.00">FIO2</text>
</g>
<!-- PVSAT -->
<g id="node25" class="node">
<title>PVSAT</title>
<ellipse fill="none" stroke="black" cx="656.84" cy="-378" rx="39.07" ry="18"/>
<text text-anchor="middle" x="656.84" y="-372.95" font-family="Times,serif" font-size="14.00">PVSAT</text>
</g>
<!-- FIO2&#45;&gt;PVSAT -->
<g id="edge18" class="edge">
<title>FIO2&#45;&gt;PVSAT</title>
<path fill="none" stroke="black" d="M650.06,-431.7C651.01,-424.32 652.14,-415.52 653.21,-407.25"/>
<polygon fill="black" stroke="black" points="656.64,-407.97 654.45,-397.61 649.7,-407.08 656.64,-407.97"/>
</g>
<!-- SAO2 -->
<g id="node26" class="node">
<title>SAO2</title>
<ellipse fill="none" stroke="black" cx="611.84" cy="-306" rx="33.95" ry="18"/>
<text text-anchor="middle" x="611.84" y="-300.95" font-family="Times,serif" font-size="14.00">SAO2</text>
</g>
<!-- PVSAT&#45;&gt;SAO2 -->
<g id="edge19" class="edge">
<title>PVSAT&#45;&gt;SAO2</title>
<path fill="none" stroke="black" d="M646.18,-360.41C640.91,-352.22 634.43,-342.14 628.52,-332.95"/>
<polygon fill="black" stroke="black" points="631.6,-331.26 623.25,-324.74 625.71,-335.05 631.6,-331.26"/>
</g>
<!-- SAO2&#45;&gt;CATECHOL -->
<g id="edge20" class="edge">
<title>SAO2&#45;&gt;CATECHOL</title>
<path fill="none" stroke="black" d="M634.48,-292.32C652.61,-282.17 678.44,-267.7 699.61,-255.85"/>
<polygon fill="black" stroke="black" points="701.24,-258.95 708.26,-251.01 697.82,-252.84 701.24,-258.95"/>
</g>
<!-- PAP -->
<g id="node27" class="node">
<title>PAP</title>
<ellipse fill="none" stroke="black" cx="510.84" cy="-522" rx="27.81" ry="18"/>
<text text-anchor="middle" x="510.84" y="-516.95" font-family="Times,serif" font-size="14.00">PAP</text>
</g>
<!-- PULMEMBOLUS -->
<g id="node28" class="node">
<title>PULMEMBOLUS</title>
<ellipse fill="none" stroke="black" cx="539.84" cy="-594" rx="81.55" ry="18"/>
<text text-anchor="middle" x="539.84" y="-588.95" font-family="Times,serif" font-size="14.00">PULMEMBOLUS</text>
</g>
<!-- PULMEMBOLUS&#45;&gt;PAP -->
<g id="edge21" class="edge">
<title>PULMEMBOLUS&#45;&gt;PAP</title>
<path fill="none" stroke="black" d="M532.67,-575.7C529.46,-567.95 525.61,-558.64 522.03,-550.02"/>
<polygon fill="black" stroke="black" points="525.37,-548.92 518.31,-541.02 518.9,-551.6 525.37,-548.92"/>
</g>
<!-- SHUNT -->
<g id="node29" class="node">
<title>SHUNT</title>
<ellipse fill="none" stroke="black" cx="597.84" cy="-522" rx="41.63" ry="18"/>
<text text-anchor="middle" x="597.84" y="-516.95" font-family="Times,serif" font-size="14.00">SHUNT</text>
</g>
<!-- PULMEMBOLUS&#45;&gt;SHUNT -->
<g id="edge22" class="edge">
<title>PULMEMBOLUS&#45;&gt;SHUNT</title>
<path fill="none" stroke="black" d="M553.88,-576.05C560.82,-567.68 569.33,-557.4 577.01,-548.13"/>
<polygon fill="black" stroke="black" points="579.68,-550.41 583.36,-540.47 574.29,-545.94 579.68,-550.41"/>
</g>
<!-- SHUNT&#45;&gt;SAO2 -->
<g id="edge23" class="edge">
<title>SHUNT&#45;&gt;SAO2</title>
<path fill="none" stroke="black" d="M598.96,-503.85C601.36,-467.14 607.02,-380.66 609.97,-335.53"/>
<polygon fill="black" stroke="black" points="613.45,-335.95 610.61,-325.74 606.47,-335.49 613.45,-335.95"/>
</g>
<!-- INTUBATION -->
<g id="node30" class="node">
<title>INTUBATION</title>
<ellipse fill="none" stroke="black" cx="719.84" cy="-594" rx="66.71" ry="18"/>
<text text-anchor="middle" x="719.84" y="-588.95" font-family="Times,serif" font-size="14.00">INTUBATION</text>
</g>
<!-- INTUBATION&#45;&gt;PRESS -->
<g id="edge26" class="edge">
<title>INTUBATION&#45;&gt;PRESS</title>
<path fill="none" stroke="black" d="M743.96,-576.76C758.67,-566.86 777.6,-554.12 793.35,-543.52"/>
<polygon fill="black" stroke="black" points="795.07,-546.58 801.41,-538.1 791.16,-540.78 795.07,-546.58"/>
</g>
<!-- INTUBATION&#45;&gt;VENTLUNG -->
<g id="edge27" class="edge">
<title>INTUBATION&#45;&gt;VENTLUNG</title>
<path fill="none" stroke="black" d="M761.93,-579.67C798.33,-568.14 851.06,-551.44 889.85,-539.15"/>
<polygon fill="black" stroke="black" points="890.48,-542.62 898.96,-536.27 888.37,-535.95 890.48,-542.62"/>
</g>
<!-- INTUBATION&#45;&gt;MINVOL -->
<g id="edge24" class="edge">
<title>INTUBATION&#45;&gt;MINVOL</title>
<path fill="none" stroke="black" d="M722.91,-575.59C727.13,-551.61 734.78,-508.14 739.84,-479.42"/>
<polygon fill="black" stroke="black" points="743.28,-480.06 741.56,-469.6 736.38,-478.84 743.28,-480.06"/>
</g>
<!-- INTUBATION&#45;&gt;SHUNT -->
<g id="edge25" class="edge">
<title>INTUBATION&#45;&gt;SHUNT</title>
<path fill="none" stroke="black" d="M692.46,-577.29C674.6,-567.04 651.13,-553.58 632.04,-542.63"/>
<polygon fill="black" stroke="black" points="633.96,-539.69 623.55,-537.75 630.48,-545.76 633.96,-539.69"/>
</g>
<!-- INTUBATION&#45;&gt;VENTALV -->
<g id="edge28" class="edge">
<title>INTUBATION&#45;&gt;VENTALV</title>
<path fill="none" stroke="black" d="M727.73,-575.94C737.27,-556.69 754.82,-525.31 776.84,-504 790.75,-490.53 808.7,-479.02 824.83,-470.2"/>
<polygon fill="black" stroke="black" points="826.03,-473.52 833.25,-465.77 822.77,-467.33 826.03,-473.52"/>
</g>
<!-- VENTALV&#45;&gt;PVSAT -->
<g id="edge37" class="edge">
<title>VENTALV&#45;&gt;PVSAT</title>
<path fill="none" stroke="black" d="M828.47,-436.49C791.93,-424.24 736.38,-405.64 698.44,-392.93"/>
<polygon fill="black" stroke="black" points="699.79,-389.69 689.19,-389.84 697.56,-396.33 699.79,-389.69"/>
</g>
<!-- ARTCO2 -->
<g id="node36" class="node">
<title>ARTCO2</title>
<ellipse fill="none" stroke="black" cx="865.84" cy="-378" rx="46.75" ry="18"/>
<text text-anchor="middle" x="865.84" y="-372.95" font-family="Times,serif" font-size="14.00">ARTCO2</text>
</g>
<!-- VENTALV&#45;&gt;ARTCO2 -->
<g id="edge38" class="edge">
<title>VENTALV&#45;&gt;ARTCO2</title>
<path fill="none" stroke="black" d="M865.84,-431.7C865.84,-424.41 865.84,-415.73 865.84,-407.54"/>
<polygon fill="black" stroke="black" points="869.34,-407.62 865.84,-397.62 862.34,-407.62 869.34,-407.62"/>
</g>
<!-- DISCONNECT -->
<g id="node32" class="node">
<title>DISCONNECT</title>
<ellipse fill="none" stroke="black" cx="787.84" cy="-666" rx="69.26" ry="18"/>
<text text-anchor="middle" x="787.84" y="-660.95" font-family="Times,serif" font-size="14.00">DISCONNECT</text>
</g>
<!-- VENTTUBE -->
<g id="node33" class="node">
<title>VENTTUBE</title>
<ellipse fill="none" stroke="black" cx="863.84" cy="-594" rx="59.54" ry="18"/>
<text text-anchor="middle" x="863.84" y="-588.95" font-family="Times,serif" font-size="14.00">VENTTUBE</text>
</g>
<!-- DISCONNECT&#45;&gt;VENTTUBE -->
<g id="edge29" class="edge">
<title>DISCONNECT&#45;&gt;VENTTUBE</title>
<path fill="none" stroke="black" d="M805.85,-648.41C815.32,-639.69 827.09,-628.85 837.56,-619.21"/>
<polygon fill="black" stroke="black" points="839.86,-621.84 844.84,-612.5 835.12,-616.7 839.86,-621.84"/>
</g>
<!-- VENTTUBE&#45;&gt;PRESS -->
<g id="edge32" class="edge">
<title>VENTTUBE&#45;&gt;PRESS</title>
<path fill="none" stroke="black" d="M854.16,-576.05C849.64,-568.14 844.15,-558.54 839.09,-549.69"/>
<polygon fill="black" stroke="black" points="842.18,-548.05 834.18,-541.1 836.11,-551.52 842.18,-548.05"/>
</g>
<!-- VENTTUBE&#45;&gt;VENTLUNG -->
<g id="edge33" class="edge">
<title>VENTTUBE&#45;&gt;VENTLUNG</title>
<path fill="none" stroke="black" d="M882.09,-576.41C891.68,-567.69 903.61,-556.85 914.21,-547.21"/>
<polygon fill="black" stroke="black" points="916.56,-549.8 921.6,-540.49 911.85,-544.63 916.56,-549.8"/>
</g>
<!-- MINVOLSET -->
<g id="node34" class="node">
<title>MINVOLSET</title>
<ellipse fill="none" stroke="black" cx="938.84" cy="-738" rx="64.66" ry="18"/>
<text text-anchor="middle" x="938.84" y="-732.95" font-family="Times,serif" font-size="14.00">MINVOLSET</text>
</g>
<!-- VENTMACH -->
<g id="node35" class="node">
<title>VENTMACH</title>
<ellipse fill="none" stroke="black" cx="938.84" cy="-666" rx="63.63" ry="18"/>
<text text-anchor="middle" x="938.84" y="-660.95" font-family="Times,serif" font-size="14.00">VENTMACH</text>
</g>
<!-- MINVOLSET&#45;&gt;VENTMACH -->
<g id="edge30" class="edge">
<title>MINVOLSET&#45;&gt;VENTMACH</title>
<path fill="none" stroke="black" d="M938.84,-719.7C938.84,-712.41 938.84,-703.73 938.84,-695.54"/>
<polygon fill="black" stroke="black" points="942.34,-695.62 938.84,-685.62 935.34,-695.62 942.34,-695.62"/>
</g>
<!-- VENTMACH&#45;&gt;VENTTUBE -->
<g id="edge31" class="edge">
<title>VENTMACH&#45;&gt;VENTTUBE</title>
<path fill="none" stroke="black" d="M921.07,-648.41C911.73,-639.69 900.1,-628.85 889.78,-619.21"/>
<polygon fill="black" stroke="black" points="892.29,-616.77 882.59,-612.5 887.51,-621.88 892.29,-616.77"/>
</g>
<!-- ARTCO2&#45;&gt;CATECHOL -->
<g id="edge40" class="edge">
<title>ARTCO2&#45;&gt;CATECHOL</title>
<path fill="none" stroke="black" d="M862.69,-359.79C858.39,-340.42 849.04,-308.92 830.84,-288 818.11,-273.37 800.31,-261.91 783.61,-253.44"/>
<polygon fill="black" stroke="black" points="785.31,-250.37 774.78,-249.21 782.29,-256.68 785.31,-250.37"/>
</g>
<!-- ARTCO2&#45;&gt;EXPCO2 -->
<g id="edge39" class="edge">
<title>ARTCO2&#45;&gt;EXPCO2</title>
<path fill="none" stroke="black" d="M883.31,-361.12C893.19,-352.14 905.72,-340.74 916.74,-330.73"/>
<polygon fill="black" stroke="black" points="919,-333.4 924.05,-324.08 914.3,-328.22 919,-333.4"/>
</g>
<!-- HR&#45;&gt;CO -->
<g id="edge45" class="edge">
<title>HR&#45;&gt;CO</title>
<path fill="none" stroke="black" d="M715.87,-150.05C711.03,-147.81 705.83,-145.65 700.84,-144 621.82,-117.91 525.13,-102.58 472.83,-95.59"/>
<polygon fill="black" stroke="black" points="473.31,-92.13 462.94,-94.31 472.41,-99.07 473.31,-92.13"/>
</g>
<!-- HR&#45;&gt;HRBP -->
<g id="edge42" class="edge">
<title>HR&#45;&gt;HRBP</title>
<path fill="none" stroke="black" d="M717.41,-148.97C700.36,-138.4 675.23,-122.83 655.3,-110.49"/>
<polygon fill="black" stroke="black" points="657.34,-107.64 647,-105.35 653.66,-113.59 657.34,-107.64"/>
</g>
<!-- HR&#45;&gt;HREKG -->
<g id="edge43" class="edge">
<title>HR&#45;&gt;HREKG</title>
<path fill="none" stroke="black" d="M737.33,-143.7C737.54,-136.41 737.79,-127.73 738.02,-119.54"/>
<polygon fill="black" stroke="black" points="741.52,-119.71 738.31,-109.62 734.52,-119.51 741.52,-119.71"/>
</g>
<!-- HR&#45;&gt;HRSAT -->
<g id="edge44" class="edge">
<title>HR&#45;&gt;HRSAT</title>
<path fill="none" stroke="black" d="M755.65,-148.81C771.53,-138.51 794.6,-123.56 813.3,-111.44"/>
<polygon fill="black" stroke="black" points="815.14,-114.42 821.62,-106.05 811.33,-108.55 815.14,-114.42"/>
</g>
</g>
</svg>
